<svg width="208" height="121" viewBox="0 0 208 121" fill="none" xmlns="http://www.w3.org/2000/svg">
<mask id="mask0" mask-type="alpha" maskUnits="userSpaceOnUse" x="0" y="0" width="208" height="121">
<rect y="0.154785" width="208" height="120" fill="#C4C4C4"/>
</mask>
<g mask="url(#mask0)">
<path d="M162.316 131.695C162.546 131.018 163.07 130.673 163.505 130.763C171.234 129.73 176.61 141.435 184.557 138.907C186.998 138.052 189.899 135.843 190.487 133.428C191.472 128.65 189.289 124.306 185.635 121.379C181.305 118.222 180.947 119.959 177.064 117.71C175.314 116.534 172.171 115.524 171.277 113.709C170.332 111.703 170.64 109.774 172.939 109.161C181.27 106.532 188.843 117.24 196.37 112.362C197.277 111.915 197.444 110.229 198.057 109.449C200.294 104.749 190.957 98.2046 186.459 99.8131C184.402 100.566 182.319 102.763 179.521 102.277C169.825 100.549 176.252 96.169 182.079 93.3855C186.283 91.4447 187.471 90.5124 191.918 88.7122C196.364 86.912 202.691 79.0693 200.341 76.4112C196.713 72.0408 182.044 81.6954 182.044 81.6954C181.469 81.8485 178.466 83.6746 177.789 83.4445C175.132 82.7155 177.726 79.3561 180.013 77.9259C205.659 62.474 198.774 58.9714 197.842 57.783C195.683 55.0739 190.073 59.4417 186.84 61.9449C186.316 62.2897 185.588 61.8679 185.627 61.2419C186.292 57.5753 194.778 49.3627 196.631 47.8429C201.04 43.5897 207.137 33.345 204.071 31.0828C202.513 29.8558 198.552 31.9372 197.887 32.5247C187.805 40.1364 181.849 47.0594 175.369 57.4062C174.896 57.9426 172.864 60.3312 172.468 59.6156C171.013 55.693 171.499 52.8951 168.727 50.9652C167.169 49.7382 163.694 49.0218 161.688 49.9667C159.349 51.2053 156.767 55.3823 156.895 57.401C156.892 66.6381 161.961 77.1925 160.773 78.1249C156.428 80.3083 151.525 71.1465 146.12 73.2019C143.296 74.1594 142.541 78.2603 143.78 80.5986C147.049 86.7065 152.732 93.4028 153.075 100.085C153.19 101.286 152.436 102.308 151.388 102.997C148.526 104.581 145.32 99.4821 142.408 97.7948C137.694 94.74 133.669 98.8911 134.613 103.976C136.106 110.352 140.654 112.014 145.098 116.372C146.708 117.791 148.239 123.54 147.306 125.431C146.104 128.625 161.856 133.049 162.316 131.695Z" fill="#33E8E8" fill-opacity="0.55"/>
<path d="M78.2725 143.231C73.1169 125.381 69.509 107.633 68.5187 88.8858C68.3229 86.9665 67.5471 85.3902 65.9833 84.2017C63.1087 81.9881 60.9076 82.8985 59.6006 84.9238C56.5702 89.0642 55.7122 93.1722 53.9227 102.058C53.8042 102.519 53.4774 103.026 53.1507 103.532C52.4074 104.128 51.5744 104.308 50.9783 103.564C50.3372 102.613 50.4969 99.3092 50.4806 98.223C49.9306 86.5725 51.2613 91.7343 50.3234 79.2957C50.1725 77.5847 49.4379 73.1662 48.8256 71.3367C47.9601 69.3439 47.5685 65.5053 44.1913 66.0154C41.0224 66.4805 39.9026 75.4397 38.461 76.8402C36.8559 78.4939 34.8556 73.2586 34.7782 70.8779C34.3866 67.0393 32.5583 56.5362 32.3176 54.4087C30.9956 44.2323 28.5662 41.051 22.1885 33.7081C19.2977 30.4083 16.2511 33.4624 16.1488 35.0101C13.4277 48.6733 15.4431 66.1103 23.0455 77.1122C23.9846 78.4354 24.4336 80.518 23.8986 81.0692C23.0817 82.335 20.1623 79.9132 19.4028 79.4231C15.442 77.2257 15.8585 77.1359 12.1059 74.8937C10.3787 73.9583 7.9082 73.6191 6.00513 74.9012C5.05359 75.5422 3.37501 77.8656 2.9747 79.0416C2.42723 81.557 3.48854 85.4691 5.1871 87.2824C12.3243 95.1154 17.9388 98.9178 29.8087 107.474C31.3277 108.454 30.4822 110.598 28.7712 110.749C24.5896 110.561 22.4908 109.923 18.9789 109.809C17.8927 109.825 15.6754 109.649 14.1152 111.511C12.2284 113.879 13.3346 118 15.9111 119.842C30.7903 131.236 51.8489 133.889 66.1482 145.626C68.0102 147.187 69.6638 148.792 71.971 149.384C74.2781 149.976 77.1489 149.139 77.9945 146.996C78.5132 145.358 78.497 144.272 78.2725 143.231Z" fill="#33E8E8" fill-opacity="0.55"/>
<path d="M121.901 63.5342C116.337 65.5073 111.189 72.1996 109.453 78.2643C109.119 76.1994 108.701 73.9238 108.366 71.8589C108.282 71.6481 108.325 71.1426 108.157 70.7211C111.407 66.0065 122.248 55.8246 117.453 49.92C110.878 51.8075 108.51 58.1242 107.577 63.1366C107.323 63.7261 107.238 64.7372 107.152 65.7482C106.609 62.5455 105.56 59.3001 104.721 55.9706C106.366 54.5823 108.813 52.1419 110.249 49.6158C111.515 47.89 115.316 40.2691 109.247 42.1993C106.845 42.9125 104.436 48.5129 103.588 52.5143C102.875 50.1119 102.035 48.0042 101.111 45.6858C101 33.7624 105.191 17.9263 92.5612 10.7477C79.5522 3.2315 82.4762 22.8265 85.1243 27.6329C87.3097 31.891 92.5219 41.2931 99.0034 46.5257C99.9274 48.8442 100.724 51.4573 101.227 53.9438C101.604 55.5031 101.897 56.8517 102.19 58.2003C98.0717 50.3164 89.7074 34.8433 82.6206 41.5752C76.4197 47.4657 96.3793 55.8756 102.693 60.6867C103.656 64.9432 104.409 69.2838 105.078 73.4135C105.287 74.5513 105.496 75.6892 105.411 76.7002C103.435 73.5799 102.219 68.6911 99.2731 66.2016C96.411 63.9228 89.2101 61.1749 87.898 65.8499C86.036 72.2093 96.0181 74.5816 100.44 76.4832C103.682 77.8777 104.859 79.6066 105.786 79.4814C106.243 84.917 106.489 90.4365 106.439 95.8293C104.384 88.8328 99.6361 78.7572 89.6492 80.0505C87.1487 91.5492 100.673 91.7773 106.522 97.2619C106.557 102.865 106.086 108.426 105.405 114.071C105.405 114.071 105.194 114.155 105.278 114.366C104.316 108.887 103.649 103.536 100.158 99.0654C96.7505 94.8057 88.4117 92.2671 89.6653 100.316C90.5005 106.089 96.3529 109.13 100.73 112.759C102.834 114.363 103.885 116.386 105.021 117.399C104.172 122.622 103.112 127.929 101.462 132.983C99.2832 123.838 93.746 105.04 82.4058 110.292C80.1588 121.201 94.3912 127.497 100.996 134.878C99.6843 139.553 98.1614 144.312 96.5545 148.86C96.3913 144.773 95.5957 140.938 94.5894 137.187C93.919 134.279 88.0745 125.129 82.6326 130.473C77.3176 135.522 87.547 142.192 90.493 144.682C93.355 146.96 94.5737 149.405 95.4548 152.229C95.0745 153.114 94.6942 153.998 94.5246 154.798C92.8337 159.136 91.2269 163.684 89.62 168.232C89.5043 159.974 91.3772 145.062 79.0735 146.057C76.9168 152.29 80.7804 161.985 84.7771 166.498C86.1654 168.143 87.3856 169.367 88.5219 170.379C87.5917 172.948 86.7454 175.728 86.026 178.213C83.5506 170.162 75.6412 161.347 71.4227 165.47C67.2882 169.804 73.8094 176.975 76.8822 179.17C79.6602 181.238 82.565 183.011 84.332 184.994C83.6538 188.195 83.1863 191.312 82.9296 194.345C82.6317 196.662 86.7187 196.499 87.0166 194.182C87.6964 189.759 88.671 185.463 89.9403 181.293C96.2205 179.279 108.394 181.022 112.947 178.963C119.313 175.938 118.856 170.503 112.159 169.019C106.052 167.79 96.7355 171.991 91.0828 177.419C92.3094 173.755 93.5359 170.091 94.7624 166.427C100.117 163.316 107.361 165.558 112.885 161.647C118.747 157.357 115.932 150.908 108.514 153.131C104.974 154.053 100.209 157.418 96.7496 160.994C97.6798 158.426 98.8208 155.773 99.751 153.204C100.554 150.93 101.358 148.656 102.161 146.382C107.936 144.325 118.677 146.15 121.846 138.781C124.128 133.476 119.415 129.004 113.512 132.577C110.603 134.469 106.765 137.709 103.727 141.117C104.996 136.948 106.182 132.568 107.156 128.272C113.733 125.162 125.905 128.127 130.464 121.181C134.221 115.288 126.093 112.665 120.403 114.933C114.923 117.117 111.04 122.083 107.495 126.671C108.173 123.47 108.852 120.269 109.235 116.941C114.295 113.703 123.776 112.367 127.239 106.347C130.575 100.621 127.045 92.9909 118.865 98.2047C114.564 100.896 111.904 105.864 109.959 110.791C110.259 107.252 110.558 103.713 110.563 100.048C112.04 98.238 114.149 96.1763 116.469 94.0306C119.211 91.7168 122.963 89.4887 123.557 86.0768C124.576 80.0533 118.675 82.4051 115.426 85.8978C112.979 88.3383 111.458 91.8754 110.442 95.4553C110.279 91.3683 110.2 87.4921 109.615 83.5731C113.794 77.5115 129.137 71.8856 121.901 63.5342Z" fill="#33E8E8" fill-opacity="0.55"/>
</g>
<path fill-rule="evenodd" clip-rule="evenodd" d="M86.6583 111.049C83.0823 111.627 79.6203 109.129 79.0034 105.314L71.7931 60.7334C71.1954 57.0382 73.555 53.4763 77.2502 52.8787C80.8262 52.3003 84.3075 54.9175 84.9051 58.6127C84.9051 58.6127 86.3896 67.7912 87.1222 72.3208C88.7802 82.5721 92.0962 103.075 92.0962 103.075C92.7131 106.889 90.3535 110.451 86.6583 111.049Z" fill="#339CF7"/>
<path fill-rule="evenodd" clip-rule="evenodd" d="M72.7212 107.309C69.1452 107.888 65.6639 105.271 65.0663 101.575L59.8417 69.272C59.2248 65.4576 61.6036 62.0148 65.2988 61.4172C68.8748 60.8388 72.3561 63.4561 72.9538 67.1513L78.1976 99.5738C78.7953 103.269 76.2972 106.731 72.7212 107.309Z" fill="#4871F7"/>
<path fill-rule="evenodd" clip-rule="evenodd" d="M87.5283 74.8235L128.057 68.2687L130.293 82.0959L89.7647 88.6508L87.5283 74.8235Z" fill="#4871F7"/>
<path fill-rule="evenodd" clip-rule="evenodd" d="M57.1272 93.3181L63.564 92.277L61.3276 78.4497L54.8908 79.4908C51.3148 80.0692 48.836 83.6504 49.453 87.4648C50.0699 91.2792 53.432 93.9157 57.1272 93.3181Z" fill="#339CF7"/>
<path fill-rule="evenodd" clip-rule="evenodd" d="M150.442 94.7396C146.865 95.318 143.384 92.7007 142.787 89.0055L137.562 56.7021C136.945 52.8877 139.324 49.445 143.019 48.8474C146.595 48.269 150.076 50.8862 150.674 54.5815L155.918 87.004C156.516 90.6992 154.018 94.1612 150.442 94.7396Z" fill="#4871F7"/>
<path fill-rule="evenodd" clip-rule="evenodd" d="M138.274 102.701C134.698 103.279 131.236 100.781 130.619 96.9664L123.409 52.3854C122.811 48.6902 125.171 45.1283 128.866 44.5306C132.442 43.9523 135.923 46.5695 136.521 50.2647L143.731 94.8457C144.329 98.541 141.969 102.103 138.274 102.701Z" fill="#339CF7"/>
<path fill-rule="evenodd" clip-rule="evenodd" d="M160.83 76.5454L154.393 77.5864L152.157 63.7592L158.594 62.7181C162.17 62.1397 165.651 64.757 166.268 68.5714C166.885 72.3858 164.406 75.967 160.83 76.5454Z" fill="#339CF7"/>
<path fill-rule="evenodd" clip-rule="evenodd" d="M97.5932 22.5323L96.6241 13.5151L100.515 21.6927L109.294 20.7621L101.374 24.7341L102.343 33.7512L98.452 25.5736L89.6733 26.5042L97.5932 22.5323Z" fill="white"/>
<path fill-rule="evenodd" clip-rule="evenodd" d="M59.1154 47.7465L58.4477 42.1055L60.8649 47.2189L66.3867 46.5705L61.4117 49.0876L62.0794 54.7286L59.6623 49.6152L54.1405 50.2636L59.1154 47.7465Z" fill="white"/>
<path fill-rule="evenodd" clip-rule="evenodd" d="M136.325 29.035L135.487 21.5868L138.79 28.3918L146.119 27.5734L139.552 30.8372L140.39 38.2854L137.088 31.4804L129.758 32.2988L136.325 29.035Z" fill="white"/>
</svg>
