<svg width="208" height="120" viewBox="0 0 208 120" fill="none" xmlns="http://www.w3.org/2000/svg">
<mask id="mask0" mask-type="alpha" maskUnits="userSpaceOnUse" x="0" y="0" width="208" height="120">
<rect width="208" height="120" fill="#C4C4C4"/>
</mask>
<g mask="url(#mask0)">
<path d="M80.1591 137.476C74.3254 119.836 70.0422 102.239 68.3366 83.543C68.0676 81.6325 67.2322 80.087 65.6241 78.9591C62.6671 76.8569 60.5023 77.8507 59.2737 79.9245C56.4036 84.1776 55.7032 88.3153 54.2543 97.2628C54.1536 97.7284 53.8464 98.2469 53.5392 98.7653C52.8193 99.3894 51.9937 99.6006 51.3696 98.8807C50.6927 97.9543 50.726 94.6471 50.6683 93.5623C49.6737 81.9414 51.2006 87.0485 49.7883 74.6548C49.5721 72.9508 48.6693 68.5636 47.9875 66.7589C47.0466 64.8005 46.5086 60.9797 43.1534 61.6184C40.0046 62.2043 39.2278 71.1997 37.8407 72.6542C36.3 74.368 34.1011 69.2129 33.9329 66.8369C33.395 63.0161 31.1668 52.5905 30.845 50.4737C29.1353 40.3553 26.5862 37.269 19.9327 30.1751C16.9179 26.9881 13.9902 30.1564 13.9471 31.7068C11.7499 45.4641 14.4298 62.8113 22.4469 73.5148C23.4358 74.8011 23.964 76.8651 23.4505 77.4364C22.6826 78.7325 19.6727 76.4239 18.8951 75.9631C14.8532 73.9187 15.266 73.813 11.4306 71.7157C9.66886 70.8471 7.1872 70.6025 5.33449 71.9563C4.40813 72.6332 2.81951 75.0189 2.46441 76.2094C2.01343 78.7439 3.22338 82.6126 4.98997 84.3597C12.4212 91.9144 18.1768 95.4995 30.3649 103.596C31.9202 104.518 31.1572 106.692 29.4531 106.908C25.2675 106.88 23.1458 106.323 19.6321 106.343C18.5473 106.4 16.3249 106.309 14.837 108.23C13.042 110.668 14.3048 114.743 16.9498 116.486C32.2534 127.304 53.3979 129.15 68.1351 140.333C70.0553 141.821 71.769 143.361 74.0971 143.865C76.4252 144.369 79.262 143.423 80.025 141.248C80.4809 139.592 80.4232 138.508 80.1591 137.476Z" fill="#FFDFB1" fill-opacity="0.25"/>
<path d="M188.114 79.8389C182.89 77.0885 174.481 77.844 168.847 80.6823C170.138 79.0361 171.526 77.1852 172.817 75.539C172.915 75.3343 173.315 75.0229 173.511 74.6135C179.18 73.8043 194.015 74.8649 195.101 67.3363C189.255 63.7849 183.007 66.3294 178.691 69.0432C178.086 69.2567 177.285 69.8796 176.484 70.5024C178.469 67.9308 180.142 64.9586 182.02 62.0844C184.156 62.3516 187.609 62.4944 190.439 61.8361C192.566 61.5961 200.744 59.2209 195.209 56.07C193.056 54.7883 187.307 56.8167 183.791 58.9076C185.073 56.7541 186.052 54.7074 187.129 52.456C195.816 44.2875 210.295 36.6269 207.004 22.4768C203.704 7.81951 191.288 23.2583 189.552 28.4641C187.905 32.958 184.532 43.165 185.082 51.4769C184.005 53.7283 182.626 56.0864 181.139 58.142C180.249 59.4768 179.457 60.6069 178.665 61.737C181.665 53.3632 187.362 36.7223 177.609 36.0805C169.075 35.5189 176.432 55.89 177.179 63.7925C174.704 67.3875 172.025 70.8846 169.444 74.177C168.75 75.1025 168.056 76.0279 167.255 76.6508C168.207 73.0823 170.975 68.8733 170.807 65.0199C170.54 61.3712 167.675 54.216 163.35 56.4225C157.414 59.3675 162.441 68.3117 164.042 72.8505C165.217 76.1789 164.745 78.2168 165.466 78.8131C161.781 82.8351 157.892 86.7592 153.895 90.3808C157.643 84.125 161.826 73.8024 154.103 67.3408C143.957 73.3021 152.962 83.3948 152.899 91.413C148.805 95.2392 144.399 98.6649 139.789 101.993C139.789 101.993 139.584 101.895 139.486 102.099C142.86 97.6769 146.34 93.557 147.257 87.9595C148.076 82.5666 144.286 74.7172 139.222 81.0973C135.546 85.6266 137.28 91.9897 137.582 97.6674C137.831 100.302 137.057 102.446 137.083 103.968C132.669 106.886 128.05 109.707 123.218 111.922C128.46 104.118 138.518 87.3 126.967 82.5288C117.427 88.2766 122.453 103.005 121.509 112.865C117.184 115.072 112.654 117.181 108.222 119.085C111.114 116.193 113.393 113.007 115.467 109.723C117.149 107.259 119.909 96.7578 112.291 96.3832C104.976 95.9019 107.013 107.943 107.181 111.796C107.448 115.445 106.478 117.999 105 120.562C104.092 120.882 103.185 121.202 102.481 121.62C98.1474 123.32 93.7154 125.223 89.2834 127.127C95.2731 121.441 107.502 112.704 98.4253 104.338C92.3825 106.98 87.8784 116.395 87.2726 122.393C87.0054 124.529 86.9341 126.255 86.9606 127.777C84.442 128.836 81.8255 130.099 79.5116 131.256C83.7484 123.976 84.8621 112.185 78.9709 111.882C72.9817 111.783 72.1352 121.439 72.6065 125.186C72.971 128.63 73.6381 131.967 73.3797 134.61C70.5674 136.283 67.9597 138.053 65.5567 139.922C63.6522 141.274 66.5441 144.167 68.4486 142.814C72.1599 140.314 75.9779 138.116 79.9026 136.221C85.6422 139.47 92.6181 149.598 97.2188 151.548C103.759 154.174 107.444 150.152 103.992 144.224C100.753 138.902 91.3471 134.906 83.5248 134.433C87.049 132.849 90.5733 131.266 94.0975 129.682C100.015 131.507 103.281 138.351 109.901 139.758C117.029 141.156 119.86 134.713 113.195 130.77C110.116 128.794 104.412 127.574 99.4373 127.458C101.956 126.399 104.679 125.438 107.198 124.379C109.414 123.428 111.63 122.476 113.846 121.524C119.274 124.372 125.218 133.503 132.782 130.834C138.229 128.913 138.318 122.416 131.689 120.502C128.325 119.647 123.341 119.024 118.776 119.104C122.701 117.208 126.724 115.109 130.542 112.911C137.287 115.635 143.364 126.59 151.56 125.23C158.439 123.993 154.854 116.242 149.328 113.598C144.006 111.053 137.723 111.568 131.948 112.075C134.76 110.402 137.572 108.729 140.278 106.754C146.089 108.276 153.501 114.337 160.274 112.799C166.744 111.366 169.957 103.598 160.578 101.123C155.683 99.7874 150.228 101.202 145.289 103.115C148.092 100.935 150.896 98.7546 153.592 96.272C155.924 96.1299 158.869 96.2815 162.02 96.531C165.579 96.9763 169.762 98.2227 172.672 96.3453C177.789 93.0086 172.059 90.267 167.289 90.2487C163.836 90.106 160.205 91.3871 156.885 93.0686C159.778 90.1767 162.572 87.4895 165.056 84.4017C172.344 83.3613 186.885 90.8204 188.114 79.8389Z" fill="#FFDFB1" fill-opacity="0.25"/>
</g>
<path d="M124.489 94.2848L56.6925 111.766C55.6445 112.031 54.5826 111.414 54.318 110.366L33.3081 28.8849C33.0436 27.837 33.6598 26.7751 34.7077 26.5105L102.485 9.02802C103.533 8.76344 104.595 9.3797 104.86 10.4276L125.888 91.9103C126.153 92.9583 125.537 94.0202 124.489 94.2848Z" fill="#1483E3"/>
<path d="M122.636 91.8359L56.8971 108.804C56.7069 108.847 56.5084 108.74 56.4654 108.549L36.1901 29.983C36.1471 29.7928 36.2544 29.5943 36.4446 29.5513L102.184 12.5832C102.374 12.5402 102.572 12.6475 102.615 12.8377L122.891 91.4041C122.952 91.5956 122.845 91.7941 122.636 91.8359Z" fill="white"/>
<path d="M118.688 90.7206L54.6659 107.227C53.6752 107.477 52.6493 106.882 52.3995 105.891L31.8583 26.2952C31.6085 25.3045 32.2036 24.2785 33.1943 24.0287L97.218 7.50374C98.2087 7.25394 99.2346 7.84899 99.4844 8.83971L120.026 88.4355C120.293 89.4461 119.68 90.4521 118.688 90.7206Z" fill="#339CF7"/>
<path d="M38.2705 31.8488C39.0937 31.9057 39.8071 31.2844 39.864 30.4612C39.9208 29.6381 39.2996 28.9246 38.4764 28.8677C37.6532 28.8109 36.9398 29.4321 36.8829 30.2553C36.8261 31.0785 37.4473 31.7919 38.2705 31.8488Z" fill="#94CBFF"/>
<path d="M40.1797 39.4501C41.0029 39.507 41.7163 38.8858 41.7732 38.0626C41.8301 37.2394 41.2089 36.526 40.3857 36.4691C39.5625 36.4122 38.849 37.0334 38.7922 37.8566C38.7353 38.6798 39.3565 39.3933 40.1797 39.4501Z" fill="#94CBFF"/>
<path d="M42.1055 47.0716C42.9287 47.1285 43.6421 46.5072 43.699 45.684C43.7559 44.8608 43.1346 44.1474 42.3114 44.0905C41.4883 44.0337 40.7748 44.6549 40.7179 45.4781C40.6611 46.3013 41.2823 47.0147 42.1055 47.0716Z" fill="#94CBFF"/>
<path d="M44.0142 54.6729C44.8374 54.7297 45.5509 54.1085 45.6077 53.2853C45.6646 52.4621 45.0434 51.7487 44.2202 51.6918C43.397 51.6349 42.6836 52.2562 42.6267 53.0794C42.5698 53.9026 43.1911 54.616 44.0142 54.6729Z" fill="#94CBFF"/>
<path d="M45.9224 62.2741C46.7456 62.331 47.4591 61.7097 47.5159 60.8866C47.5728 60.0634 46.9516 59.3499 46.1284 59.2931C45.3052 59.2362 44.5918 59.8574 44.5349 60.6806C44.478 61.5038 45.0993 62.2172 45.9224 62.2741Z" fill="#94CBFF"/>
<path d="M47.8495 69.8766C48.6727 69.9335 49.3861 69.3123 49.443 68.4891C49.4999 67.6659 48.8787 66.9525 48.0555 66.8956C47.2323 66.8387 46.5188 67.4599 46.462 68.2831C46.4051 69.1063 47.0263 69.8198 47.8495 69.8766Z" fill="#94CBFF"/>
<path d="M49.757 77.4968C50.5802 77.5537 51.2936 76.9325 51.3505 76.1093C51.4074 75.2861 50.7861 74.5727 49.9629 74.5158C49.1397 74.4589 48.4263 75.0801 48.3694 75.9033C48.3126 76.7265 48.9338 77.44 49.757 77.4968Z" fill="#94CBFF"/>
<path d="M51.6841 85.0994C52.5073 85.1562 53.2207 84.535 53.2776 83.7118C53.3345 82.8886 52.7133 82.1752 51.8901 82.1183C51.0669 82.0615 50.3534 82.6827 50.2966 83.5059C50.2397 84.3291 50.8609 85.0425 51.6841 85.0994Z" fill="#94CBFF"/>
<path d="M53.5922 92.7006C54.4154 92.7575 55.1289 92.1363 55.1857 91.3131C55.2426 90.4899 54.6214 89.7764 53.7982 89.7196C52.975 89.6627 52.2616 90.2839 52.2047 91.1071C52.1478 91.9303 52.7691 92.6437 53.5922 92.7006Z" fill="#94CBFF"/>
<path d="M55.5011 100.302C56.3243 100.359 57.0377 99.7375 57.0946 98.9144C57.1514 98.0912 56.5302 97.3777 55.707 97.3209C54.8838 97.264 54.1704 97.8852 54.1135 98.7084C54.0566 99.5316 54.6779 100.245 55.5011 100.302Z" fill="#94CBFF"/>
<path fill-rule="evenodd" clip-rule="evenodd" d="M39.1292 30.0801C39.2642 30.6203 38.9356 31.1676 38.3953 31.3025L32.6996 32.7249C32.1594 32.8598 31.6121 32.5313 31.4772 31.991C31.3422 31.4508 31.6708 30.9034 32.2111 30.7685L37.9068 29.3461C38.447 29.2112 38.9943 29.5398 39.1292 30.0801Z" fill="#2555EF"/>
<path fill-rule="evenodd" clip-rule="evenodd" d="M41.0556 37.6794C41.1921 38.2193 40.8652 38.7676 40.3254 38.9041L34.6284 40.3451C34.0885 40.4817 33.5402 40.1548 33.4037 39.6149C33.2671 39.0751 33.5941 38.5268 34.1339 38.3902L39.8309 36.9492C40.3707 36.8127 40.919 37.1396 41.0556 37.6794Z" fill="#2555EF"/>
<path fill-rule="evenodd" clip-rule="evenodd" d="M42.9638 45.2807C43.1003 45.8205 42.7734 46.3688 42.2336 46.5054L36.5366 47.9464C35.9968 48.0829 35.4484 47.756 35.3119 47.2162C35.1753 46.6763 35.5023 46.128 36.0421 45.9915L41.7391 44.5505C42.2789 44.4139 42.8272 44.7408 42.9638 45.2807Z" fill="#2555EF"/>
<path fill-rule="evenodd" clip-rule="evenodd" d="M44.8914 52.8845C45.0274 53.4245 44.6999 53.9725 44.16 54.1085L38.4444 55.5482C37.9044 55.6842 37.3564 55.3568 37.2204 54.8168C37.0844 54.2768 37.4118 53.7288 37.9518 53.5928L43.6674 52.1531C44.2074 52.0171 44.7554 52.3445 44.8914 52.8845Z" fill="#2555EF"/>
<path fill-rule="evenodd" clip-rule="evenodd" d="M46.799 60.5064C46.934 61.0466 46.6054 61.5939 46.0651 61.7288L40.3694 63.1512C39.8292 63.2861 39.2819 62.9576 39.147 62.4173C39.012 61.8771 39.3406 61.3297 39.8809 61.1948L45.5766 59.7724C46.1168 59.6375 46.6641 59.9661 46.799 60.5064Z" fill="#2555EF"/>
<path fill-rule="evenodd" clip-rule="evenodd" d="M48.7065 68.1046C48.8431 68.6445 48.5161 69.1928 47.9763 69.3293L42.2793 70.7704C41.7395 70.9069 41.1912 70.58 41.0546 70.0401C40.9181 69.5003 41.245 68.952 41.7848 68.8154L47.4818 67.3744C48.0216 67.2379 48.57 67.5648 48.7065 68.1046Z" fill="#2555EF"/>
<path fill-rule="evenodd" clip-rule="evenodd" d="M50.6336 75.7072C50.7701 76.247 50.4432 76.7953 49.9034 76.9319L44.2064 78.3729C43.6665 78.5094 43.1182 78.1825 42.9817 77.6427C42.8451 77.1028 43.1721 76.5545 43.7119 76.418L49.4089 74.977C49.9487 74.8404 50.497 75.1673 50.6336 75.7072Z" fill="#2555EF"/>
<path fill-rule="evenodd" clip-rule="evenodd" d="M52.5424 83.3085C52.6789 83.8483 52.352 84.3966 51.8122 84.5332L46.1152 85.9742C45.5754 86.1107 45.027 85.7838 44.8905 85.244C44.754 84.7041 45.0809 84.1558 45.6207 84.0193L51.3177 82.5783C51.8575 82.4417 52.4058 82.7686 52.5424 83.3085Z" fill="#2555EF"/>
<path fill-rule="evenodd" clip-rule="evenodd" d="M54.4506 90.9313C54.5855 91.4715 54.2569 92.0189 53.7167 92.1538L48.021 93.5762C47.4808 93.7111 46.9334 93.3825 46.7985 92.8423C46.6636 92.302 46.9922 91.7547 47.5324 91.6198L53.2281 90.1974C53.7684 90.0625 54.3157 90.3911 54.4506 90.9313Z" fill="#2555EF"/>
<path fill-rule="evenodd" clip-rule="evenodd" d="M56.3769 98.5312C56.5135 99.071 56.1865 99.6193 55.6467 99.7559L49.9497 101.197C49.4099 101.333 48.8616 101.007 48.725 100.467C48.5885 99.9269 48.9154 99.3786 49.4552 99.242L55.1522 97.801C55.6921 97.6644 56.2404 97.9914 56.3769 98.5312Z" fill="#2555EF"/>
<rect x="48.8181" y="30.4312" width="44.0358" height="13.4831" rx="1" transform="rotate(-14.3807 48.8181 30.4312)" fill="white"/>
<path d="M147.65 114.349L79.7868 97.109C78.7404 96.8511 78.119 95.786 78.377 94.7396L99.1096 13.173C99.3675 12.1266 100.433 11.5052 101.479 11.7631L169.342 29.0029C170.388 29.2608 171.01 30.326 170.752 31.3724L150.019 112.939C149.743 113.984 148.696 114.607 147.65 114.349Z" fill="#224EE0"/>
<path d="M147.195 111.329L81.388 94.6023C81.1865 94.5477 81.0721 94.3505 81.1252 94.1676L101.12 15.5371C101.175 15.3356 101.372 15.2212 101.555 15.2743L167.362 32.0013C167.564 32.056 167.678 32.2532 167.625 32.4361L147.649 111.068C147.596 111.251 147.398 111.365 147.195 111.329Z" fill="white"/>
<path d="M144.274 108.437L80.1906 92.1573C79.2 91.9041 78.5924 90.8963 78.8472 89.8872L99.0798 10.2273C99.333 9.23676 100.341 8.62919 101.35 8.88394L165.435 25.1455C166.426 25.3987 167.033 26.4064 166.778 27.4156L146.546 107.075C146.291 108.085 145.283 108.692 144.274 108.437Z" fill="#2555EF"/>
<path d="M102.733 18.3927C103.555 18.4628 104.278 17.8531 104.348 17.031C104.418 16.2088 103.809 15.4854 102.986 15.4153C102.164 15.3452 101.441 15.9549 101.371 16.777C101.301 17.5992 101.91 18.3226 102.733 18.3927Z" fill="#6388FF"/>
<path d="M100.754 25.984C101.577 26.0541 102.3 25.4444 102.37 24.6223C102.44 23.8001 101.83 23.0768 101.008 23.0066C100.186 22.9365 99.4628 23.5462 99.3926 24.3684C99.3225 25.1905 99.9322 25.9139 100.754 25.984Z" fill="#6388FF"/>
<path d="M98.7763 33.575C99.5984 33.6451 100.322 33.0354 100.392 32.2133C100.462 31.3911 99.8523 30.6677 99.0302 30.5976C98.208 30.5275 97.4847 31.1372 97.4146 31.9593C97.3444 32.7815 97.9541 33.5049 98.7763 33.575Z" fill="#6388FF"/>
<path d="M96.7981 41.1663C97.6203 41.2364 98.3436 40.6267 98.4137 39.8046C98.4839 38.9824 97.8742 38.259 97.052 38.1889C96.2299 38.1188 95.5065 38.7285 95.4364 39.5507C95.3663 40.3728 95.9759 41.0962 96.7981 41.1663Z" fill="#6388FF"/>
<path d="M94.82 48.7576C95.6421 48.8277 96.3655 48.218 96.4356 47.3959C96.5057 46.5737 95.896 45.8504 95.0739 45.7802C94.2517 45.7101 93.5284 46.3198 93.4583 47.142C93.3881 47.9641 93.9978 48.6875 94.82 48.7576Z" fill="#6388FF"/>
<path d="M92.8418 56.3489C93.664 56.419 94.3873 55.8093 94.4574 54.9872C94.5276 54.165 93.9179 53.4417 93.0957 53.3715C92.2736 53.3014 91.5502 53.9111 91.4801 54.7333C91.41 55.5554 92.0196 56.2788 92.8418 56.3489Z" fill="#6388FF"/>
<path d="M90.8637 63.9399C91.6859 64.01 92.4092 63.4003 92.4794 62.5782C92.5495 61.756 91.9398 61.0327 91.1176 60.9625C90.2955 60.8924 89.5721 61.5021 89.502 62.3243C89.4319 63.1464 90.0416 63.8698 90.8637 63.9399Z" fill="#6388FF"/>
<path d="M88.885 71.5311C89.7071 71.6012 90.4305 70.9916 90.5006 70.1694C90.5707 69.3472 89.961 68.6239 89.1389 68.5538C88.3167 68.4837 87.5934 69.0933 87.5233 69.9155C87.4531 70.7377 88.0628 71.461 88.885 71.5311Z" fill="#6388FF"/>
<path d="M86.9074 79.1225C87.7296 79.1926 88.4529 78.5829 88.5231 77.7608C88.5932 76.9386 87.9835 76.2153 87.1613 76.1451C86.3392 76.075 85.6158 76.6847 85.5457 77.5069C85.4756 78.329 86.0853 79.0524 86.9074 79.1225Z" fill="#6388FF"/>
<path d="M84.9476 86.715C85.7698 86.7852 86.4931 86.1755 86.5632 85.3533C86.6333 84.5312 86.0237 83.8078 85.2015 83.7377C84.3793 83.6676 83.656 84.2772 83.5859 85.0994C83.5158 85.9216 84.1254 86.6449 84.9476 86.715Z" fill="#6388FF"/>
<path fill-rule="evenodd" clip-rule="evenodd" d="M96.0235 15.0261C96.1637 14.4872 96.7142 14.164 97.2531 14.3041L102.938 15.7823C103.476 15.9224 103.8 16.4729 103.66 17.0118C103.519 17.5507 102.969 17.874 102.43 17.7339L96.7456 16.2557C96.2067 16.1155 95.8834 15.565 96.0235 15.0261Z" fill="#94CBFF"/>
<path fill-rule="evenodd" clip-rule="evenodd" d="M94.0454 22.6174C94.1855 22.0785 94.736 21.7553 95.2749 21.8954L100.959 23.3736C101.498 23.5137 101.822 24.0642 101.681 24.6031C101.541 25.142 100.991 25.4653 100.452 25.3252L94.7674 23.847C94.2285 23.7068 93.9053 23.1564 94.0454 22.6174Z" fill="#94CBFF"/>
<path fill-rule="evenodd" clip-rule="evenodd" d="M92.0673 30.2084C92.2074 29.6695 92.7579 29.3462 93.2968 29.4864L98.9813 30.9646C99.5202 31.1047 99.8435 31.6552 99.7034 32.1941C99.5632 32.733 99.0128 33.0563 98.4738 32.9162L92.7893 31.438C92.2504 31.2978 91.9272 30.7473 92.0673 30.2084Z" fill="#94CBFF"/>
<path fill-rule="evenodd" clip-rule="evenodd" d="M90.0892 37.7997C90.2293 37.2608 90.7798 36.9376 91.3187 37.0777L97.0032 38.5559C97.5421 38.696 97.8654 39.2465 97.7252 39.7854C97.5851 40.3243 97.0346 40.6476 96.4957 40.5075L90.8112 39.0293C90.2723 38.8891 89.949 38.3387 90.0892 37.7997Z" fill="#94CBFF"/>
<path fill-rule="evenodd" clip-rule="evenodd" d="M88.1109 45.3916C88.2507 44.8526 88.801 44.529 89.34 44.6689L95.0431 46.1486C95.5821 46.2885 95.9057 46.8388 95.7658 47.3778C95.626 47.9168 95.0757 48.2403 94.5367 48.1005L88.8336 46.6207C88.2946 46.4809 87.971 45.9306 88.1109 45.3916Z" fill="#94CBFF"/>
<path fill-rule="evenodd" clip-rule="evenodd" d="M86.1327 52.9826C86.2726 52.4436 86.8229 52.12 87.3619 52.2599L93.065 53.7396C93.604 53.8795 93.9275 54.4298 93.7877 54.9688C93.6478 55.5078 93.0975 55.8313 92.5585 55.6915L86.8554 54.2117C86.3164 54.0719 85.9929 53.5216 86.1327 52.9826Z" fill="#94CBFF"/>
<path fill-rule="evenodd" clip-rule="evenodd" d="M84.173 60.5749C84.3132 60.036 84.8636 59.7127 85.4025 59.8529L91.087 61.3311C91.626 61.4712 91.9492 62.0217 91.8091 62.5606C91.6689 63.0995 91.1185 63.4228 90.5796 63.2826L84.8951 61.8044C84.3561 61.6643 84.0329 61.1138 84.173 60.5749Z" fill="#94CBFF"/>
<path fill-rule="evenodd" clip-rule="evenodd" d="M82.1949 68.1662C82.335 67.6273 82.8855 67.304 83.4244 67.4442L89.1089 68.9224C89.6478 69.0625 89.9711 69.613 89.8309 70.1519C89.6908 70.6908 89.1403 71.0141 88.6014 70.8739L82.9169 69.3957C82.378 69.2556 82.0547 68.7051 82.1949 68.1662Z" fill="#94CBFF"/>
<path fill-rule="evenodd" clip-rule="evenodd" d="M80.2167 75.7575C80.3569 75.2186 80.9073 74.8953 81.4462 75.0355L87.1307 76.5137C87.6697 76.6538 87.9929 77.2043 87.8528 77.7432C87.7127 78.2821 87.1622 78.6054 86.6233 78.4652L80.9388 76.987C80.3999 76.8469 80.0766 76.2964 80.2167 75.7575Z" fill="#94CBFF"/>
<path fill-rule="evenodd" clip-rule="evenodd" d="M78.2386 83.3485C78.3788 82.8096 78.9292 82.4863 79.4682 82.6265L85.1527 84.1047C85.6916 84.2448 86.0148 84.7953 85.8747 85.3342C85.7346 85.8731 85.1841 86.1964 84.6452 86.0562L78.9607 84.578C78.4218 84.4379 78.0985 83.8874 78.2386 83.3485Z" fill="#94CBFF"/>
<rect x="111.093" y="21.9" width="44.0358" height="13.4831" rx="1" transform="rotate(14.2143 111.093 21.9)" fill="#339CF7"/>
<path d="M169.143 54.6323L171.025 57.5689C171.59 58.4618 171.341 59.6425 170.448 60.2074L167.411 62.17L163.455 55.9896L166.492 54.027C167.377 53.4828 168.558 53.7317 169.143 54.6323Z" fill="#94CBFF"/>
<path d="M109.771 94.8879L118.34 93.7727L114.383 87.5923L109.771 94.8879Z" fill="#94CBFF"/>
<path d="M163.962 55.6934L114.386 87.5926L118.357 93.7641L167.933 61.8649L163.962 55.6934Z" fill="#1483E3"/>
<path d="M165.277 57.6811L115.7 89.5803L116.98 91.5693L166.557 59.6701L165.277 57.6811Z" fill="#339CF7"/>
</svg>
