<svg width="208" height="139" viewBox="0 0 208 139" fill="none" xmlns="http://www.w3.org/2000/svg">
<mask id="mask0" mask-type="alpha" maskUnits="userSpaceOnUse" x="0" y="0" width="208" height="139">
<rect y="0.365723" width="208" height="138" fill="#C4C4C4"/>
</mask>
<g mask="url(#mask0)">
<path d="M70.1409 148.849C65.8835 132.672 62.8633 116.5 62.2439 99.7087C62.1555 97.9952 61.5711 96.5272 60.1669 95.4177C57.4911 93.3705 55.6794 94.22 54.3588 96.0611C51.5654 99.7239 50.7702 103.49 48.9883 111.306C48.9294 111.763 48.7183 112.199 48.3551 112.617C47.6481 113.299 46.8675 113.353 46.3568 112.514C45.694 111.655 46.0866 108.611 46.0522 107.678C45.7129 97.1122 46.7982 101.894 46.2331 90.6805C46.125 89.1192 45.7026 85.1964 44.9857 83.5566C44.2884 81.7647 43.8071 78.2985 40.989 78.5539C37.999 78.9419 36.9585 87.0085 35.7165 88.2409C34.1307 89.7384 32.5888 84.8976 32.5397 82.8797C32.3824 79.3005 30.801 69.9673 30.5997 67.9298C29.6075 58.8274 27.3734 55.754 21.7467 48.9937C19.2082 45.8811 16.5129 48.7828 16.1841 50.133C13.5089 62.476 14.8745 78.2801 21.6306 88.2808C22.4064 89.464 22.9515 91.2364 22.4163 91.7863C21.6505 92.9254 19.1464 90.7456 18.4247 90.343C14.6834 88.1584 15.1597 88.0651 11.7032 86.0719C10.2597 85.2668 7.84412 84.8005 6.14543 85.974C5.3059 86.4846 3.64162 88.5909 3.37163 89.4845C2.77275 91.7283 3.71066 95.2534 5.36038 96.8587C11.7089 104.022 16.6629 107.601 27.2534 115.465C28.5251 116.403 27.6611 118.303 26.2716 118.279C22.4274 118.092 20.6598 117.4 17.444 117.14C16.5308 117.022 14.5326 116.919 13.0794 118.589C11.4151 120.695 12.3334 124.372 14.4397 126.036C27.6275 136.557 46.6133 139.316 59.2857 150.234C60.8028 151.668 62.4722 153.121 64.5637 153.7C66.6553 154.279 69.2083 153.68 70.0723 151.78C70.5141 150.754 70.4797 149.821 70.1409 148.849Z" fill="#6388FF" fill-opacity="0.55"/>
<path d="M196.785 84.0899C191.984 82.674 185.11 84.739 180.892 88.0769C181.694 86.4774 182.543 84.6898 183.345 83.0903C183.393 82.9021 183.674 82.5729 183.77 82.1965C188.353 80.5531 200.873 78.9165 200.533 72.4215C195.081 70.4403 190.303 73.6365 187.16 76.6459C186.691 76.9279 186.128 77.5863 185.564 78.2447C186.791 75.7514 187.692 72.9754 188.78 70.2467C190.601 70.1071 193.498 69.6389 195.744 68.6054C197.474 68.0421 203.888 64.659 198.761 62.9604C196.757 62.2527 192.309 64.9316 189.729 67.2826C190.44 65.2595 190.916 63.3773 191.44 61.307C197.319 52.9818 208.102 44.096 203.025 32.7967C197.857 21.0737 190.076 36.1272 189.492 40.786C188.864 44.8329 187.743 53.9621 189.575 60.8348C189.051 62.9051 188.293 65.1165 187.396 67.0923C186.876 68.3626 186.403 69.4446 185.931 70.5267C187.043 62.9976 189.034 48.0803 180.812 49.2029C173.618 50.1852 183.106 66.0063 185.034 72.5026C183.569 75.9369 181.917 79.3241 180.313 82.523C179.889 83.4168 179.464 84.3107 178.9 84.9691C179.103 81.816 180.711 77.817 179.934 74.6161C179.109 71.6034 175.543 66.094 172.309 68.6798C167.856 72.1587 173.517 78.7993 175.599 82.3308C177.127 84.9205 177.071 86.7088 177.769 87.0859C175.367 91.0843 172.779 95.0354 170.053 98.751C172.137 92.8699 173.913 83.5059 166.418 79.4051C158.96 86.1288 168.121 93.0548 169.394 99.7859C166.619 103.69 163.519 107.311 160.233 110.885C160.233 110.885 160.047 110.838 159.999 111.026C162.075 106.745 164.29 102.699 164.128 97.8518C163.919 93.1924 159.468 87.2588 156.308 93.4684C153.998 97.8904 156.493 102.928 157.682 107.635C158.325 109.801 158.035 111.73 158.308 113.001C155.117 116.199 151.74 119.349 148.084 122.029C151.157 114.595 156.747 98.7869 146.347 96.7544C139.358 103.196 145.975 114.685 146.818 123.11C143.584 125.696 140.163 128.234 136.789 130.585C138.719 127.668 140.088 124.61 141.271 121.505C142.264 119.153 142.825 109.882 136.424 110.865C130.258 111.707 133.942 121.452 134.719 124.653C135.544 127.666 135.159 129.971 134.353 132.371C133.65 132.794 132.948 133.217 132.432 133.687C129.106 135.849 125.733 138.199 122.359 140.55C126.404 134.764 135.136 125.359 126.201 119.892C121.795 123.183 119.417 131.794 120.043 137.159C120.173 138.995 120.399 140.454 120.673 141.725C118.752 143.041 116.783 144.545 115.049 145.909C117.372 139.087 116.35 129.014 111.398 129.763C106.398 130.7 107.289 138.937 108.3 141.997C109.172 144.821 110.279 147.505 110.501 149.764C108.437 151.645 106.56 153.573 104.869 155.548C103.508 157.006 106.392 158.938 107.753 157.48C110.428 154.753 113.242 152.261 116.195 150.004C121.508 151.75 128.986 159.051 133.137 159.902C139.013 160.989 141.415 156.991 137.563 152.611C133.988 148.701 125.501 146.953 118.914 147.889C121.584 145.961 124.255 144.034 126.926 142.107C132.152 142.629 136 147.809 141.742 147.861C147.905 147.819 149.195 141.937 142.998 139.767C140.109 138.635 135.161 138.584 131.002 139.333C132.923 138.017 135.03 136.748 136.951 135.432C138.638 134.257 140.325 133.082 142.011 131.907C146.999 133.37 153.454 140.011 159.307 136.486C163.522 133.949 162.523 128.488 156.69 128.013C153.75 127.869 149.5 128.195 145.714 129.039C148.667 126.782 151.667 124.338 154.481 121.846C160.544 122.98 167.411 131.128 174.007 128.592C179.527 126.385 175.262 120.498 170.227 119.224C165.378 117.996 160.235 119.497 155.513 120.905C157.577 119.025 159.641 117.144 161.565 115.028C166.653 115.314 173.822 119.132 179.203 116.69C184.351 114.388 185.741 107.33 177.527 106.852C173.233 106.566 168.928 108.68 165.134 111.124C167.106 108.82 169.079 106.516 170.913 103.976C172.829 103.46 175.305 103.085 177.968 102.758C181.004 102.525 184.69 102.858 186.802 100.789C190.509 97.1211 185.287 95.7989 181.315 96.5956C178.418 97.0638 175.608 98.7557 173.123 100.73C175.053 97.814 176.934 95.0859 178.49 92.0752C184.292 89.5387 197.576 93.5032 196.785 84.0899Z" fill="#6388FF" fill-opacity="0.55"/>
<path d="M74.7798 100.818C73.973 97.0028 73.22 93.4423 72.0041 89.5774C69.9955 83.2206 70.4275 75.8414 70.5113 69.3279C70.5668 60.1684 69.708 46.6854 74.6801 38.7885C77.2098 41.3279 77.991 47.5344 78.744 51.0949C80.1892 57.3002 80.6618 63.3037 80.9334 69.613C81.3125 76.4309 80.2095 83.1499 80.28 89.7649C82.9684 88.0296 83.0592 82.1776 83.896 79.2246C85.6162 72.9115 88.4166 67.3087 91.7266 61.6031C94.4335 56.8146 97.241 51.8733 100.565 47.4907C102.629 44.688 105.792 39.5425 108.789 38.0101C108.899 43.5564 107.118 48.9537 105.183 54.2496C102.946 60.0039 100.917 66.1141 97.6536 71.4125C95.8981 74.4182 87.9899 84.7632 91.1438 88.37C101.442 81.7858 108.417 70.1704 117.527 62.3673C124.968 56.094 133.683 49.5638 143.259 47.1028C140.968 52.6029 134.338 58.3149 130.196 62.5973C124.337 68.8166 118.224 75.0874 111.903 81.0023C106.34 86.1016 102.165 92.1142 96.6009 97.2135C105.007 90.4803 114.286 84.1017 124.464 80.7236C128.944 79.2901 133.168 77.908 137.802 76.576C139.686 76.0635 142.126 75.0411 143.917 75.3429C141.968 79.3158 135.565 82.3304 132.119 84.8814C126.85 88.8606 121.634 93.0942 115.741 96.0061C109.237 99.1736 102.64 103.155 95.7738 105.866C100.734 101.683 111.645 99.8813 118.023 99.2583C122.563 98.7407 130.16 97.6065 134.273 100.092C129.52 104.63 119.636 106.888 113.581 109.037C107.017 111.289 97.8503 113.8 90.7479 113.508C86.4557 113.313 81.13 112 77.9831 109.055C75.9772 107.736 75.0487 102.089 74.7798 100.818Z" fill="#6388FF" fill-opacity="0.55"/>
</g>
<path d="M35.1373 112.531L107.356 124.841C108.529 125.076 109.584 124.255 109.701 123.2L125.059 33.395C125.294 32.2226 124.473 31.1674 123.418 31.0502L51.1989 18.6229C50.0266 18.3884 48.9714 19.2091 48.8542 20.2643L33.4959 110.069C33.2614 111.241 33.9649 112.414 35.1373 112.531Z" fill="#2ADEDE"/>
<path d="M116.385 39.7252L103.606 114.289C103.371 115.461 102.199 116.282 101.027 116.165L44.0487 106.434C42.8763 106.2 42.0556 105.027 42.1729 103.855L54.9519 29.291C55.1864 28.1186 56.3587 27.2979 57.5311 27.4152L114.509 37.146C115.681 37.3805 116.502 38.5528 116.385 39.7252Z" fill="white"/>
<path d="M80.0394 18.7401C80.9773 14.9884 84.6117 12.5264 88.4806 13.2298C92.3494 13.9333 95.0459 17.4504 94.6942 21.3193L101.846 22.4917C102.666 22.6089 103.253 23.4296 103.135 24.2503L101.26 34.919C101.142 35.7397 100.322 36.3259 99.501 36.2086L70.3086 31.2846C69.4879 31.1673 68.9017 30.3467 69.019 29.526L70.8948 18.8573C71.012 18.0366 71.8327 17.4504 72.6534 17.5677L80.0394 18.7401ZM86.8392 22.7262C88.3633 22.9606 89.7702 22.0227 90.0047 20.4986C90.2391 18.9745 89.3012 17.5677 87.7771 17.3332C86.253 17.0987 84.8462 18.0366 84.6117 19.5607C84.3772 20.9676 85.4324 22.3745 86.8392 22.7262Z" fill="#3393EE"/>
<path d="M71.4723 49.7065C73.2759 47.6711 73.0879 44.5591 71.0526 42.7556C69.0172 40.9521 65.9052 41.14 64.1017 43.1754C62.2982 45.2107 62.4861 48.3227 64.5215 50.1262C66.5568 51.9298 69.6688 51.7418 71.4723 49.7065Z" fill="#94CBFF"/>
<path d="M62.6021 74.3525C65.2575 74.9389 67.8855 73.2617 68.4719 70.6063C69.0584 67.9509 67.3811 65.3229 64.7257 64.7364C62.0703 64.15 59.4423 65.8272 58.8559 68.4826C58.2695 71.138 59.9467 73.766 62.6021 74.3525Z" fill="#94CBFF"/>
<path d="M58.0361 97.0582C60.6266 97.8858 63.3974 96.4566 64.225 93.8661C65.0525 91.2756 63.6234 88.5047 61.0329 87.6772C58.4424 86.8496 55.6715 88.2788 54.8439 90.8693C54.0164 93.4598 55.4455 96.2307 58.0361 97.0582Z" fill="#94CBFF"/>
<path d="M66.8036 49.4942L64.4032 46.1334C64.2624 45.8331 64.2716 45.4625 64.5719 45.3217L66.0822 44.247C66.3825 44.1062 66.7531 44.1155 66.8939 44.4157L67.5369 45.3961C67.6777 45.6963 68.0483 45.7056 68.3485 45.5648L73.6701 41.8784C73.9703 41.7375 74.3409 41.7468 74.4817 42.0471L75.5564 43.5574C75.6972 43.8577 75.6879 44.2283 75.3877 44.3691L67.7256 49.7027C67.3151 49.8037 66.9445 49.7944 66.8036 49.4942Z" fill="#339CF7"/>
<path d="M62.6716 72.3093L60.2711 68.9485C60.1303 68.6483 60.1396 68.2776 60.4398 68.1368L61.9502 67.0621C62.2504 66.9213 62.6211 66.9306 62.7619 67.2308L63.4048 68.2112C63.5457 68.5114 63.9163 68.5207 64.2165 68.3799L69.538 64.6935C69.8382 64.5527 70.2089 64.562 70.3497 64.8622L71.4244 66.3726C71.5652 66.6728 71.5559 67.0434 71.2557 67.1842L63.5935 72.5179C63.1831 72.6188 62.8523 72.4993 62.6716 72.3093Z" fill="#339CF7"/>
<path d="M58.5396 95.125L56.1391 91.7641C55.9983 91.4639 56.0076 91.0933 56.3078 90.9525L57.8182 89.8778C58.1184 89.737 58.489 89.7462 58.6299 90.0465L59.2728 91.0268C59.4136 91.327 59.7843 91.3363 60.0845 91.1955L65.406 87.5091C65.7062 87.3683 66.0769 87.3776 66.2177 87.6778L67.2924 89.1882C67.4332 89.4884 67.4239 89.859 67.1237 89.9999L59.4615 95.3335C59.1613 95.4743 58.8305 95.3548 58.5396 95.125Z" fill="#339CF7"/>
<path d="M93.7765 44.9477L80.2751 42.5255L79.799 45.1796L93.3003 47.6018L93.7765 44.9477Z" fill="#C0E0FC"/>
<path d="M105.288 51.8477L79.4396 47.2104L78.9634 49.8645L104.812 54.5018L105.288 51.8477Z" fill="#C0E0FC"/>
<path d="M104.499 56.4197L78.65 51.7824L78.1738 54.4365L104.023 59.0738L104.499 56.4197Z" fill="#C0E0FC"/>
<path d="M89.6487 68.1315L76.1473 65.7093L75.6712 68.3634L89.1725 70.7856L89.6487 68.1315Z" fill="#C0E0FC"/>
<path d="M101.184 74.9165L75.3351 70.2792L74.859 72.9333L100.708 77.5706L101.184 74.9165Z" fill="#C0E0FC"/>
<path d="M100.372 79.6041L74.5231 74.9668L74.047 77.6209L99.8957 82.2582L100.372 79.6041Z" fill="#C0E0FC"/>
<path d="M85.5131 90.9535L72.0117 88.5314L71.5356 91.1855L85.0369 93.6076L85.5131 90.9535Z" fill="#C0E0FC"/>
<path d="M97.0438 97.7379L71.1951 93.1006L70.7189 95.7548L96.5676 100.392L97.0438 97.7379Z" fill="#C0E0FC"/>
<path d="M96.234 102.424L70.3853 97.7869L69.9092 100.441L95.7579 105.078L96.234 102.424Z" fill="#C0E0FC"/>
<path d="M132.327 77.3582L127.755 72.7859C127.051 72.0825 125.996 72.0825 125.293 72.7859L109.7 88.4959C108.996 89.1993 108.996 90.2545 109.7 90.9579L114.272 95.5302C114.976 96.2336 116.031 96.2336 116.734 95.5302L132.327 79.8202C133.03 79.234 133.03 78.0617 132.327 77.3582Z" fill="#339CF7"/>
<path d="M109.579 90.5757L114.467 95.4702L85.846 124.05L80.9584 119.156L109.579 90.5757Z" fill="#94CBFF"/>
<path d="M78.1635 126.833L80.9772 119.212L85.784 124.019L78.1635 126.833Z" fill="#339CF7"/>
<path d="M134.788 82.3995L132.209 79.8203L130.685 81.3444L132.092 82.7512L122.947 91.7786C122.126 92.5993 122.126 94.0061 122.947 94.8268L134.671 83.1029C135.023 82.9857 135.023 82.634 134.788 82.3995Z" fill="#339CF7"/>
<path d="M162.139 77.613C171.821 77.613 179.67 69.764 179.67 60.0818C179.67 50.3996 171.821 42.5506 162.139 42.5506C152.457 42.5506 144.608 50.3996 144.608 60.0818C144.608 69.764 152.457 77.613 162.139 77.613Z" fill="white" stroke="#3393EE" stroke-width="2.5" stroke-miterlimit="10"/>
<path d="M148.935 56.5639C149.208 55.569 148.437 54.49 147.212 54.1539C145.988 53.8178 144.774 54.3518 144.501 55.3467C144.228 56.3416 144.999 57.4206 146.223 57.7567C147.448 58.0928 148.662 57.5587 148.935 56.5639Z" fill="#3393EE"/>
<path d="M167.979 45.6268C168.315 44.4023 167.781 43.1883 166.786 42.9152C165.791 42.6421 164.712 43.4134 164.376 44.6378C164.04 45.8623 164.574 47.0763 165.569 47.3494C166.564 47.6225 167.643 46.8513 167.979 45.6268Z" fill="#3393EE"/>
<path d="M159.951 75.5715C160.287 74.347 159.753 73.133 158.758 72.8599C157.763 72.5868 156.684 73.358 156.348 74.5825C156.012 75.807 156.546 77.021 157.541 77.2941C158.536 77.5672 159.615 76.7959 159.951 75.5715Z" fill="#3393EE"/>
<path d="M179.59 64.9178C179.863 63.923 179.092 62.844 177.868 62.5079C176.643 62.1717 175.429 62.7058 175.156 63.7007C174.883 64.6955 175.654 65.7745 176.879 66.1106C178.103 66.4467 179.317 65.9127 179.59 64.9178Z" fill="#3393EE"/>
<path d="M177.085 61.4993L178.666 65.5228C178.666 65.6665 178.953 65.6665 179.097 65.6665L182.114 62.6489" stroke="#2ADEDE" stroke-width="1.9424" stroke-miterlimit="10" stroke-linecap="round" stroke-linejoin="round"/>
<path d="M162.715 60.5125L161.278 60.0814L163.146 53.1839C163.289 52.8965 163.577 52.6091 163.864 52.7528L164.152 52.8965C164.439 53.0402 164.726 53.3276 164.583 53.615L162.715 60.5125Z" fill="#81BDF3"/>
<path d="M160.272 60.3683L160.703 58.9313L167.6 60.7994C167.888 60.9431 168.175 61.2305 168.031 61.5179L167.888 61.8053C167.744 62.0927 167.457 62.3801 167.169 62.2364L160.272 60.3683Z" fill="#81BDF3"/>
<path d="M162.14 61.949C163.171 61.949 164.008 61.1126 164.008 60.0809C164.008 59.0492 163.171 58.2128 162.14 58.2128C161.108 58.2128 160.272 59.0492 160.272 60.0809C160.272 61.1126 161.108 61.949 162.14 61.949Z" fill="#3393EE"/>
<path d="M178.953 64.6799C181.539 55.3395 176.079 45.7118 166.738 43.2689" stroke="#2ADEDE" stroke-width="2.5" stroke-miterlimit="10" stroke-linecap="round" stroke-linejoin="round"/>
</svg>
