<svg width="208" height="138" viewBox="0 0 208 138" fill="none" xmlns="http://www.w3.org/2000/svg">
<mask id="mask0" mask-type="alpha" maskUnits="userSpaceOnUse" x="0" y="0" width="208" height="138">
<rect width="208" height="138" fill="#C4C4C4"/>
</mask>
<g mask="url(#mask0)">
<path d="M19.3248 89.6176C24.7082 87.195 33.0554 88.4685 38.5028 91.6492C37.3164 89.9264 36.0449 87.9933 34.8584 86.2706C34.7733 86.0602 34.3928 85.7247 34.2227 85.304C28.6146 84.1463 13.7426 84.2887 13.1231 76.7074C19.1776 73.5238 25.2561 76.4493 29.3966 79.4244C29.9875 79.6749 30.7485 80.346 31.5095 81.0172C29.6873 78.3279 28.2006 75.2581 26.5037 72.2733C24.3555 72.4081 20.9004 72.3374 18.1164 71.5056C16.0084 71.1347 7.99207 68.2589 13.711 65.4559C15.9396 64.3096 21.5524 66.6891 24.932 68.9932C23.7857 66.7647 22.9348 64.6614 21.9989 62.3478C13.8334 53.6584 -0.145645 45.1182 4.0131 31.1984C8.212 16.7728 19.6509 32.9489 21.062 38.252C22.4282 42.839 25.1653 53.2349 24.1021 61.4969C25.0381 63.8105 26.2695 66.2494 27.6261 68.3928C28.432 69.78 29.1529 70.9569 29.8737 72.1337C27.3966 63.5906 22.7379 46.6297 32.5124 46.5915C41.065 46.558 32.4636 66.4358 31.2303 74.2772C33.4779 78.0181 35.9359 81.674 38.3087 85.1195C38.9445 86.0861 39.5803 87.0526 40.3413 87.7238C39.6109 84.1033 37.108 79.7313 37.5143 75.8957C38.0057 72.2705 41.3069 65.3058 45.4876 67.7752C51.2305 71.0812 45.6606 79.6979 43.782 84.1291C42.4044 87.3786 42.7495 89.4417 41.9933 89.9924C45.4226 94.2343 49.0622 98.3911 52.827 102.253C49.4733 95.7774 45.935 85.2161 54.0431 79.2438C63.8013 85.8203 54.1903 95.3376 53.7582 103.344C57.6081 107.416 61.7936 111.107 66.1894 114.713C66.1894 114.713 66.3998 114.628 66.4849 114.839C63.3911 110.216 60.1722 105.889 59.6024 100.246C59.1177 94.8127 63.3854 87.2123 68.0461 93.893C71.4352 98.6407 69.3109 104.885 68.6589 110.533C68.2478 113.147 68.8883 115.335 68.7678 116.852C72.9935 120.038 77.4295 123.138 82.1159 125.648C77.3654 117.535 68.3654 100.127 80.1886 96.0785C89.356 102.405 83.4295 116.795 83.7632 126.694C87.9439 129.164 92.3349 131.548 96.6409 133.722C93.9325 130.657 91.855 127.337 89.9879 123.932C88.4611 121.367 86.355 110.716 93.9813 110.813C101.312 110.784 98.5358 122.676 98.1295 126.512C97.6381 130.137 98.4488 132.746 99.7652 135.395C100.651 135.771 101.538 136.147 102.214 136.608C106.434 138.571 110.74 140.745 115.046 142.919C109.419 136.874 97.7537 127.398 107.329 119.608C113.197 122.619 117.111 132.294 117.346 138.318C117.48 140.466 117.445 142.194 117.325 143.711C119.773 144.923 122.306 146.346 124.545 147.643C120.765 140.116 120.382 128.279 126.281 128.34C132.265 128.611 132.513 138.301 131.811 142.011C131.235 145.426 130.363 148.716 130.458 151.37C133.161 153.213 135.655 155.141 137.938 157.155C139.755 158.622 136.69 161.331 134.873 159.863C131.323 157.138 127.648 154.709 123.848 152.575C117.918 155.463 110.33 165.141 105.618 166.803C98.9277 169.02 95.4984 164.778 99.3101 159.075C102.871 153.963 112.506 150.555 120.343 150.567C116.923 148.768 113.503 146.97 110.084 145.172C104.064 146.628 100.383 153.257 93.6877 154.252C86.4869 155.207 84.0595 148.602 90.9554 145.078C94.1504 143.296 99.9191 142.431 104.891 142.622C102.443 141.41 99.7843 140.283 97.3359 139.07C95.183 137.983 93.03 136.896 90.877 135.809C85.2833 138.317 78.787 147.064 71.4017 143.933C66.0843 141.678 66.3959 135.189 73.1312 133.688C76.5413 133.043 81.5538 132.728 86.1055 133.089C82.3052 130.956 78.4199 128.611 74.7449 126.182C67.8443 128.484 61.1024 139.044 53.0058 137.179C46.216 135.521 50.2734 128.005 55.9522 125.708C61.4207 123.496 67.6598 124.398 73.3931 125.26C70.6895 123.417 67.9858 121.574 65.4074 119.435C59.5135 120.596 51.7409 126.188 45.0765 124.234C38.7074 122.405 35.9798 114.452 45.4942 112.561C50.4618 111.531 55.8194 113.279 60.6311 115.494C57.9676 113.145 55.3041 110.796 52.7658 108.151C50.4474 107.865 47.4981 107.835 44.3384 107.889C40.7581 108.114 36.5066 109.1 33.7179 107.046C28.8163 103.4 34.7054 101.017 39.4674 101.294C42.9225 101.364 46.4675 102.867 49.6769 104.751C46.9685 101.686 44.3451 98.8309 42.0573 95.5957C34.8469 94.1072 19.8736 100.654 19.3248 89.6176Z" fill="#94CBFF" fill-opacity="0.55"/>
<path d="M144.377 94.1739C148.276 94.1982 151.915 94.2209 155.946 94.636C162.576 95.3272 169.719 93.4222 176.083 92.0322C185.044 90.1386 198.425 88.2725 205.163 81.816C202.167 79.8478 195.93 80.3287 192.291 80.306C185.922 80.1363 179.946 80.8788 173.711 81.8797C166.955 82.8773 160.595 85.3071 154.1 86.5663C155.26 83.5842 160.975 82.3201 163.7 80.9075C169.539 77.9546 174.465 74.0862 179.39 69.6979C183.537 66.0846 187.814 62.3421 191.44 58.2057C193.771 55.6208 198.177 51.4892 199.076 48.2455C193.621 49.2513 188.691 52.0799 183.892 55.0393C178.704 58.3861 173.125 61.6006 168.59 65.8613C165.998 68.1847 157.452 78.0091 153.285 75.6436C157.668 64.2335 167.646 55.0679 173.461 44.5765C178.112 36.0274 182.759 26.1787 183.247 16.3039C178.319 19.6524 174.055 27.2941 170.691 32.212C165.775 39.1997 160.86 46.4474 156.334 53.8276C152.456 60.3019 147.404 65.5992 143.526 72.0735C148.434 62.4863 152.82 52.116 154.085 41.4663C154.59 36.7905 155.096 32.3746 155.47 27.568C155.594 25.6192 156.105 23.023 155.45 21.3293C151.95 24.0369 150.282 30.9149 148.475 34.8028C145.635 40.7637 142.535 46.723 140.866 53.0812C139.069 60.0884 136.493 67.3507 135.216 74.6211C138.317 68.9217 137.892 57.8716 137.222 51.4988C136.817 46.9473 136.402 39.2764 133.142 35.7469C129.651 41.3138 129.423 51.4501 128.534 57.8132C127.646 64.6961 127.027 74.1801 128.739 81.0792C129.792 85.2449 132.147 90.1985 135.664 92.6899C137.359 94.3901 143.077 94.1658 144.377 94.1739Z" fill="#94CBFF" fill-opacity="0.55"/>
</g>
<path d="M88.371 107.263C88.7707 109.254 90.9229 110.468 93.1673 110.001L151.46 97.7131C153.705 97.2464 155.211 95.2555 154.781 93.2645L140.699 24.6701C140.3 22.6791 138.148 21.4659 135.903 21.9325L77.6409 34.1893C75.3965 34.6559 73.89 36.6469 74.3204 38.6378L88.371 107.263Z" fill="#2555EF" stroke="#2555EF" stroke-width="2" stroke-miterlimit="10"/>
<path d="M32.4126 119.054C32.8123 121.045 34.9645 122.258 37.2089 121.791L95.4711 109.534C97.7156 109.068 99.2221 107.077 98.7916 105.086L84.6796 36.4602C84.2799 34.4693 82.1277 33.256 79.8833 33.7227L21.621 45.9795C19.3766 46.4461 17.8701 48.437 18.3006 50.428L32.4126 119.054Z" fill="#2555EF" stroke="#2555EF" stroke-width="2" stroke-miterlimit="10"/>
<path d="M87.416 108.259C88.1846 111.961 91.6281 114.356 95.8402 113.485C100.052 112.583 102.266 109.005 101.528 105.304L100.206 98.8329C99.4374 95.131 95.9939 92.7356 91.7818 93.6067C87.5697 94.5088 85.3561 98.0863 86.0939 101.788L87.416 108.259Z" fill="#2555EF" stroke="#2555EF" stroke-width="3" stroke-miterlimit="10"/>
<path d="M136.374 25.8654L150.459 94.3969L36.8514 118.3L22.767 49.7689L136.374 25.8654Z" fill="#DCECFA"/>
<path d="M79.2724 36.3668C97.5659 24.7011 111.37 21.5902 132.769 25.1677C137.258 47.0682 141.778 68.9686 146.266 90.8691C125.483 90.0603 111.586 92.9534 92.8618 102.037C92.8618 102.068 92.8618 102.068 92.8618 102.099C92.8311 102.099 92.7696 102.099 92.7389 102.099C92.7081 102.13 92.6774 102.13 92.6159 102.162C92.6159 102.13 92.6159 102.13 92.6159 102.099C71.8936 101.322 57.9967 104.277 39.2421 113.392C34.7533 91.4913 30.2337 69.5908 25.7449 47.6904C44.0691 35.9624 57.8737 32.8516 79.2724 36.3668Z" fill="white"/>
<path opacity="0.08" d="M52.0903 37.5179C50.9835 37.1134 50.0611 36.8957 49.4155 36.7712C59.0387 34.0959 68.4775 34.7492 78.6542 36.2424C78.7772 36.3357 79.1461 36.3668 79.1461 36.4602L92.6126 102.037L92.6741 102.317C92.6741 102.317 92.4896 102.255 92.4589 102.068C91.6902 99.2995 87.97 81.972 79.5766 65.7022C76.3483 59.4494 72.3822 53.3521 67.6782 48.2814C61.6828 41.8108 55.7797 38.7933 52.0903 37.5179Z" fill="#2555EF" fill-opacity="0.5"/>
<path d="M128.399 37.7044C128.399 37.7044 107.461 30.4561 88.1534 46.166" stroke="#CCD8FF" stroke-width="3" stroke-miterlimit="10"/>
<path d="M130.582 48.3125C130.582 48.3125 109.645 41.0642 90.3367 56.774" stroke="#CCD8FF" stroke-width="3" stroke-miterlimit="10"/>
<path d="M132.95 59.8227C132.95 59.8227 112.012 52.5743 92.704 68.2842" stroke="#CCD8FF" stroke-width="3" stroke-miterlimit="10"/>
<path d="M135.315 71.3639C135.315 71.3639 114.377 64.1156 95.0693 79.8255" stroke="#CCD8FF" stroke-width="3" stroke-miterlimit="10"/>
<path d="M137.684 82.8741C137.684 82.8741 116.747 75.6258 97.4388 91.3356" stroke="#CCD8FF" stroke-width="3" stroke-miterlimit="10"/>
<path d="M74.837 48.9969C74.837 48.9969 53.8995 41.7486 34.5915 57.4585" stroke="#CCD8FF" stroke-width="3" stroke-miterlimit="10"/>
<path d="M76.9916 59.5739C76.9916 59.5739 56.0541 52.3256 36.7461 68.0354" stroke="#CCD8FF" stroke-width="3" stroke-miterlimit="10"/>
<path d="M79.359 71.1151C79.359 71.1151 58.4215 63.8668 39.1135 79.5767" stroke="#CCD8FF" stroke-width="3" stroke-miterlimit="10"/>
<path d="M81.7243 82.6253C81.7243 82.6253 60.7868 75.377 41.4788 91.0869" stroke="#CCD8FF" stroke-width="3" stroke-miterlimit="10"/>
<path d="M84.0938 94.1355C84.0938 94.1355 63.1562 86.8872 43.8482 102.597" stroke="#CCD8FF" stroke-width="3" stroke-miterlimit="10"/>
<path d="M186.211 73.7199L153.15 67.1113C150.829 66.6545 149.333 64.3932 149.81 62.0736L150.371 59.3218C150.831 56.9955 149.335 54.7342 147.013 54.2774L131.735 51.226C129.414 50.7692 127.154 52.2717 126.694 54.598L124.516 65.4884L122.008 77.9884L117.931 98.3426C117.489 100.514 118.902 102.623 121.052 103.055L178.091 114.442C180.258 114.88 182.365 113.461 182.8 111.307L189.392 78.4351C189.774 76.2608 188.361 74.152 186.211 73.7199Z" fill="#03D6D6"/>
<path d="M182.567 72.9836L149.507 66.375C147.185 65.9182 145.689 63.6568 146.167 61.3372L146.727 58.5855C147.187 56.2592 145.691 53.9978 143.37 53.541L128.091 50.4897C125.77 50.0329 123.51 51.5354 123.051 53.8617L120.872 64.7521L118.365 77.2521L114.287 97.6062C113.846 99.7781 115.259 101.887 117.408 102.319L174.447 113.705C176.614 114.144 178.722 112.725 179.157 110.571L185.748 77.6988C186.13 75.5245 184.717 73.4156 182.567 72.9836Z" fill="#2ADEDE"/>
</svg>
